<svg xmlns="http://www.w3.org/2000/svg" version="1.1" xmlns:xlink="http://www.w3.org/1999/xlink" xmlns:svgjs="http://svgjs.dev/svgjs" width="1000" height="1000" viewBox="0 0 1000 1000"><rect width="1000" height="1000" fill="#000000"></rect><g transform="matrix(0.7,0,0,0.7,150.07466666666664,352.72087721518983)"><svg viewBox="0 0 375 158" data-background-color="#ffffff" preserveAspectRatio="xMidYMid meet" height="421" width="1000" xmlns="http://www.w3.org/2000/svg" xmlns:xlink="http://www.w3.org/1999/xlink"><g id="tight-bounds" transform="matrix(1,0,0,1,-0.03976036071776434,-0.037733642578132276)"><svg viewBox="0 0 375.07952880859375 158.0753631591797" height="158.0753631591797" width="375.07952880859375"><g><svg></svg></g><g><svg viewBox="0 0 375.07952880859375 158.0753631591797" height="158.0753631591797" width="375.07952880859375"><g transform="matrix(1,0,0,1,-10.220239639282227,-49.029266357421875)"><path xmlns="http://www.w3.org/2000/svg" d="M10.22 198.171v-149.142h375.08v149.142h-20.984v-5.021h15.963v-139.1h-365.038v139.1l158.569 0 0 5.021z" fill="#ffffff" fill-rule="nonzero" stroke="none" stroke-width="1" stroke-linecap="butt" stroke-linejoin="miter" stroke-miterlimit="10" stroke-dasharray="" stroke-dashoffset="0" font-family="none" font-weight="none" font-size="none" text-anchor="none" style="mix-blend-mode: normal" data-fill-palette-color="tertiary"></path><g><path xmlns="http://www.w3.org/2000/svg" d="M198.618 201.299h-4.73l-4.301-13.117-0.716-2.365v-1.433h3.56l3.464 12.806h0.478l2.532-12.806h4.826l2.007 9.771 0.478 3.035h0.478l3.44-12.806h3.536v1.433l-0.717 2.365-4.252 13.117h-4.731l-2.485-13.188h-0.501l-0.502 3.416zM218.663 201.538v0c-1.035 0-1.959-0.183-2.771-0.55-0.812-0.366-1.449-0.98-1.911-1.839-0.462-0.86-0.693-2.023-0.693-3.488v0c0-1.418 0.247-2.556 0.741-3.417 0.494-0.86 1.147-1.486 1.959-1.878 0.812-0.389 1.704-0.583 2.675-0.583v0c1.067 0 1.908 0.119 2.523 0.359 0.612 0.239 1.077 0.47 1.396 0.692v0l1.194 3.799-0.478 1.481h-6.689c0.096 0.844 0.398 1.521 0.908 2.031 0.51 0.51 1.29 0.765 2.341 0.765v0c0.86 0 1.558-0.104 2.093-0.311 0.532-0.207 0.902-0.366 1.109-0.478v0 2.485c-0.478 0.255-1.086 0.473-1.826 0.655-0.742 0.185-1.599 0.277-2.571 0.277zM216.585 194.585v0l3.584-0.477-0.359-1.768c-0.111-0.064-0.266-0.111-0.463-0.144-0.201-0.032-0.381-0.048-0.54-0.048v0c-0.717 0-1.266 0.252-1.649 0.755-0.382 0.5-0.573 1.061-0.573 1.682zM232.234 201.299v0c-0.765 0-1.378-0.068-1.84-0.206-0.462-0.134-0.792-0.269-0.989-0.406-0.201-0.134-0.301-0.201-0.301-0.2v0 0.597h-3.345v-13.093l-0.501-2.389 0.501-1.433h3.345v3.846l-0.239 2.7 0.239 0.119c0.319-0.303 0.714-0.594 1.185-0.874 0.468-0.277 1.117-0.416 1.945-0.416v0c1.418 0 2.529 0.454 3.335 1.362 0.803 0.908 1.204 2.341 1.204 4.301v0c0 1.465-0.202 2.647-0.607 3.545-0.408 0.902-0.954 1.551-1.638 1.95-0.685 0.398-1.449 0.597-2.294 0.597zM230.705 198.766v0c0.637 0 1.136-0.159 1.495-0.477 0.357-0.319 0.612-0.733 0.765-1.243 0.15-0.51 0.225-1.059 0.225-1.648v0c0-0.573-0.059-1.104-0.177-1.591-0.121-0.484-0.341-0.874-0.66-1.171-0.319-0.293-0.788-0.44-1.409-0.44v0l-1.84 0.502v5.758c0 0 0.167 0.051 0.502 0.153 0.334 0.105 0.701 0.158 1.099 0.157zM250.344 201.299h-5.209v-13.069l-0.477-2.389 0.477-1.457h5.209c1.147 0 2.251 0.107 3.311 0.32 1.058 0.217 2.005 0.62 2.843 1.209 0.835 0.589 1.496 1.433 1.983 2.532 0.484 1.099 0.726 2.525 0.727 4.277v0c0 1.752-0.247 3.189-0.741 4.31-0.494 1.125-1.163 1.997-2.007 2.618-0.844 0.621-1.795 1.051-2.853 1.291-1.061 0.239-2.149 0.358-3.263 0.358zM248.528 187.49v10.703h2.533c1.656 0 2.835-0.491 3.535-1.472 0.701-0.978 1.051-2.311 1.052-3.999v0c0-1.688-0.354-2.983-1.061-3.885-0.71-0.898-1.886-1.347-3.526-1.347v0zM266.351 201.538v0c-1.035 0-1.959-0.183-2.771-0.55-0.812-0.366-1.449-0.98-1.912-1.839-0.462-0.86-0.693-2.023-0.692-3.488v0c0-1.418 0.247-2.556 0.74-3.417 0.494-0.86 1.147-1.486 1.959-1.878 0.812-0.389 1.704-0.583 2.676-0.583v0c1.067 0 1.908 0.119 2.523 0.359 0.612 0.239 1.077 0.47 1.395 0.692v0l1.195 3.799-0.478 1.481h-6.69c0.096 0.844 0.398 1.521 0.908 2.031 0.51 0.51 1.29 0.765 2.342 0.765v0c0.86 0 1.558-0.104 2.093-0.311 0.532-0.207 0.902-0.366 1.108-0.478v0 2.485c-0.478 0.255-1.086 0.473-1.825 0.655-0.742 0.185-1.599 0.277-2.571 0.277zM264.273 194.585v0l3.583-0.477-0.358-1.768c-0.111-0.064-0.266-0.111-0.464-0.144-0.201-0.032-0.381-0.048-0.54-0.048v0c-0.717 0-1.266 0.252-1.648 0.755-0.382 0.5-0.573 1.061-0.573 1.682zM280.017 201.299h-4.061l-3.011-8.171-0.478-3.106h3.584l1.792 7.932h0.478l1.816-7.932h3.559l-0.477 3.106zM289.789 201.538v0c-1.035 0-1.959-0.183-2.772-0.55-0.812-0.366-1.449-0.98-1.911-1.839-0.462-0.86-0.693-2.023-0.693-3.488v0c0-1.418 0.247-2.556 0.741-3.417 0.494-0.86 1.147-1.486 1.959-1.878 0.812-0.389 1.704-0.583 2.676-0.583v0c1.067 0 1.908 0.119 2.523 0.359 0.612 0.239 1.077 0.47 1.395 0.692v0l1.195 3.799-0.478 1.481h-6.69c0.096 0.844 0.398 1.521 0.908 2.031 0.51 0.51 1.29 0.765 2.341 0.765v0c0.86 0 1.558-0.104 2.093-0.311 0.532-0.207 0.902-0.366 1.109-0.478v0 2.485c-0.478 0.255-1.086 0.473-1.825 0.655-0.742 0.185-1.599 0.277-2.571 0.277zM287.71 194.585v0l3.584-0.477-0.358-1.768c-0.111-0.064-0.266-0.111-0.464-0.144-0.201-0.032-0.381-0.048-0.54-0.048v0c-0.717 0-1.266 0.252-1.648 0.755-0.382 0.5-0.573 1.061-0.574 1.682zM300.134 201.299h-3.345v-13.093l-0.502-2.389 0.502-1.433h3.345zM307.851 201.538v0c-1.943 0-3.369-0.51-4.277-1.529-0.908-1.019-1.362-2.469-1.362-4.348v0c0-1.895 0.454-3.35 1.362-4.363 0.908-1.01 2.333-1.515 4.277-1.515v0c2.007 0 3.445 0.505 4.315 1.515 0.866 1.013 1.3 2.467 1.299 4.363v0c0 1.879-0.433 3.329-1.299 4.348-0.87 1.019-2.308 1.529-4.315 1.529zM307.851 199.149v0c0.653 0 1.191-0.255 1.615-0.765 0.42-0.51 0.631-1.418 0.631-2.723v0c0-1.306-0.21-2.214-0.631-2.724-0.424-0.51-0.962-0.765-1.615-0.765v0c-0.669 0-1.214 0.255-1.634 0.765-0.424 0.51-0.636 1.418-0.636 2.724v0c0 1.306 0.215 2.214 0.645 2.723 0.43 0.51 0.972 0.765 1.625 0.765zM318.96 207.105h-3.344v-13.021l-0.478-2.628 0.74-1.458h2.605v1.028l0.239 0.119c0 0 0.143-0.119 0.43-0.358 0.287-0.239 0.682-0.475 1.185-0.708 0.5-0.229 1.085-0.344 1.753-0.344v0c1.418 0 2.529 0.454 3.336 1.362 0.803 0.908 1.204 2.341 1.204 4.301v0c0 1.465-0.202 2.647-0.607 3.545-0.408 0.902-0.954 1.551-1.639 1.95-0.685 0.398-1.449 0.597-2.294 0.597v0c-0.828 0-1.513-0.076-2.054-0.229-0.542-0.15-0.9-0.256-1.076-0.32v0zM320.537 198.958v0c0.621 0 1.115-0.156 1.482-0.469 0.366-0.309 0.629-0.718 0.788-1.228 0.159-0.51 0.239-1.059 0.239-1.648v0c0-0.573-0.064-1.107-0.191-1.601-0.127-0.494-0.354-0.889-0.679-1.185-0.328-0.293-0.795-0.44-1.4-0.44v0l-1.816 0.502v5.758c0 0 0.164 0.051 0.493 0.153 0.325 0.105 0.686 0.158 1.084 0.158zM333.439 201.538v0c-1.035 0-1.959-0.183-2.772-0.55-0.812-0.366-1.449-0.98-1.911-1.839-0.462-0.86-0.693-2.023-0.693-3.488v0c0-1.418 0.247-2.556 0.741-3.417 0.494-0.86 1.147-1.486 1.959-1.878 0.812-0.389 1.704-0.583 2.676-0.583v0c1.067 0 1.908 0.119 2.523 0.359 0.612 0.239 1.077 0.47 1.395 0.692v0l1.195 3.799-0.478 1.481h-6.69c0.096 0.844 0.398 1.521 0.908 2.031 0.51 0.51 1.29 0.765 2.341 0.765v0c0.86 0 1.558-0.104 2.093-0.311 0.532-0.207 0.902-0.366 1.109-0.478v0 2.485c-0.478 0.255-1.086 0.473-1.826 0.655-0.742 0.185-1.599 0.277-2.57 0.277zM331.36 194.585v0l3.584-0.477-0.358-1.768c-0.111-0.064-0.266-0.111-0.464-0.144-0.201-0.032-0.381-0.048-0.54-0.048v0c-0.717 0-1.266 0.252-1.648 0.755-0.382 0.5-0.573 1.061-0.574 1.682zM343.832 201.299h-3.297v-7.478l-0.502-2.389 0.502-1.434h2.293l0.478 0.55c0 0 0.108-0.068 0.325-0.206 0.213-0.134 0.519-0.264 0.917-0.392 0.398-0.127 0.884-0.191 1.458-0.191v0c0.319 0 0.637 0.024 0.955 0.072 0.319 0.048 0.565 0.111 0.741 0.191v0l1.553 1.553-1.314 2.341-3.273-1.648-0.836 0.334z" fill="#ffffff" fill-rule="nonzero" stroke="none" stroke-width="1" stroke-linecap="butt" stroke-linejoin="miter" stroke-miterlimit="10" stroke-dasharray="" stroke-dashoffset="0" font-family="none" font-weight="none" font-size="none" text-anchor="none" style="mix-blend-mode: normal" data-fill-palette-color="secondary"></path></g></g><g transform="matrix(1,0,0,1,29.331764404296877,51.20280505313123)"><svg viewBox="0 0 316.416 55.66975305291724" height="55.66975305291724" width="316.416"><g><svg viewBox="0 0 316.416 55.66975305291724" height="55.66975305291724" width="316.416"><g><svg viewBox="0 0 316.416 55.66975305291724" height="55.66975305291724" width="316.416"><g><svg viewBox="0 0 316.416 55.66975305291724" height="55.66975305291724" width="316.416"><g id="textblocktransform"><svg viewBox="0 0 316.416 55.66975305291724" height="55.66975305291724" width="316.416" id="textblock"><g><svg viewBox="0 0 316.416 55.66975305291724" height="55.66975305291724" width="316.416"><g transform="matrix(1,0,0,1,0,0)"><svg width="316.416" viewBox="4.130000114440918 -37.5 215.88999938964844 37.9900016784668" height="55.66975305291724" data-palette-color="#000000"><path d="M27.32-20.26L27.32-16.46 8.13-16.46 8.13-20.26 27.32-20.26ZM8.86-35.55L8.86 0 4.13 0 4.13-35.55 8.86-35.55ZM31.47-35.55L31.47 0 26.73 0 26.73-35.55 31.47-35.55ZM54.66-4.52L54.66-18.12Q54.66-20.48 53.26-21.89 51.85-23.29 49.12-23.29L49.12-23.29Q47.43-23.29 46.15-22.71 44.87-22.12 44.16-21.17 43.45-20.21 43.45-19.09L43.45-19.09 38.89-19.09Q38.89-21 40.18-22.79 41.48-24.58 43.83-25.74 46.19-26.9 49.39-26.9L49.39-26.9Q52.27-26.9 54.49-25.93 56.71-24.95 57.97-22.99 59.23-21.02 59.23-18.07L59.23-18.07 59.23-5.76Q59.23-4.44 59.46-2.95 59.69-1.46 60.15-0.39L60.15-0.39 60.15 0 55.39 0Q55.05-0.78 54.86-2.09 54.66-3.39 54.66-4.52L54.66-4.52ZM55.44-16.02L55.49-12.84 50.95-12.84Q47.09-12.84 44.99-11.62 42.89-10.4 42.89-7.96L42.89-7.96Q42.89-6.05 44.17-4.74 45.46-3.42 47.92-3.42L47.92-3.42Q50-3.42 51.58-4.3 53.17-5.18 54.1-6.47 55.03-7.76 55.1-8.96L55.1-8.96 57.05-6.79Q56.88-5.76 56.13-4.52 55.37-3.27 54.11-2.14 52.85-1 51.13-0.26 49.41 0.49 47.26 0.49L47.26 0.49Q44.58 0.49 42.56-0.55 40.55-1.59 39.44-3.37 38.33-5.15 38.33-7.32L38.33-7.32Q38.33-11.6 41.55-13.81 44.77-16.02 50.22-16.02L50.22-16.02 55.44-16.02ZM70.87-20.78L70.87 0 66.3 0 66.3-26.42 70.62-26.42 70.87-20.78ZM69.79-14.23L67.89-14.31Q67.94-17.92 69.28-20.76 70.62-23.61 73.03-25.26 75.43-26.9 78.63-26.9L78.63-26.9Q81.25-26.9 83.14-25.94 85.03-24.98 86.07-22.88 87.1-20.78 87.1-17.31L87.1-17.31 87.1 0 82.54 0 82.54-17.36Q82.54-19.43 81.94-20.7 81.34-21.97 80.17-22.55 79-23.12 77.29-23.12L77.29-23.12Q75.61-23.12 74.24-22.41 72.87-21.7 71.87-20.46 70.87-19.21 70.33-17.61 69.79-16.02 69.79-14.23L69.79-14.23ZM98.87-26.42L98.87 0 94.3 0 94.3-26.42 98.87-26.42ZM93.96-33.45L93.96-33.45Q93.96-34.52 94.63-35.28 95.31-36.04 96.62-36.04L96.62-36.04Q97.94-36.04 98.64-35.28 99.33-34.52 99.33-33.45L99.33-33.45Q99.33-32.4 98.64-31.65 97.94-30.91 96.62-30.91L96.62-30.91Q95.31-30.91 94.63-31.65 93.96-32.4 93.96-33.45ZM117.18-26.42L117.18-22.97 102.87-22.97 102.87-26.42 117.18-26.42ZM107.68-32.84L112.25-32.84 112.25-6.54Q112.25-5.18 112.66-4.49 113.08-3.81 113.74-3.59 114.39-3.37 115.15-3.37L115.15-3.37Q115.71-3.37 116.34-3.47 116.96-3.56 117.25-3.64L117.25-3.64 117.28 0Q116.74 0.17 115.87 0.33 115 0.49 113.78 0.49L113.78 0.49Q112.12 0.49 110.73-0.17 109.34-0.83 108.51-2.38 107.68-3.93 107.68-6.57L107.68-6.57 107.68-32.84ZM142.13-3.66L142.13 0 122.91 0 122.91-3.66 142.13-3.66ZM141.42-23.24L123.96 0 121.18 0 121.18-3.3 138.54-26.42 141.42-26.42 141.42-23.24ZM139.42-26.42L139.42-22.73 121.37-22.73 121.37-26.42 139.42-26.42ZM162.61-7.01L162.61-7.01Q162.61-7.98 162.18-8.83 161.75-9.67 160.46-10.36 159.16-11.06 156.55-11.6L156.55-11.6Q153.62-12.21 151.49-13.15 149.35-14.09 148.19-15.55 147.03-17.02 147.03-19.19L147.03-19.19Q147.03-21.29 148.24-23.03 149.45-24.78 151.66-25.84 153.87-26.9 156.82-26.9L156.82-26.9Q159.99-26.9 162.25-25.79 164.51-24.68 165.71-22.81 166.9-20.95 166.9-18.68L166.9-18.68 162.34-18.68Q162.34-20.31 160.91-21.78 159.48-23.24 156.82-23.24L156.82-23.24Q154.97-23.24 153.81-22.67 152.65-22.09 152.12-21.2 151.6-20.31 151.6-19.34L151.6-19.34Q151.6-18.36 152.08-17.64 152.57-16.92 153.88-16.36 155.19-15.8 157.68-15.23L157.68-15.23Q160.92-14.5 163.02-13.48 165.12-12.45 166.15-10.96 167.17-9.47 167.17-7.32L167.17-7.32Q167.17-5.03 165.9-3.26 164.63-1.49 162.34-0.5 160.04 0.49 156.94 0.49L156.94 0.49Q153.45 0.49 151.03-0.76 148.62-2 147.37-3.97 146.13-5.93 146.13-8.13L146.13-8.13 150.69-8.13Q150.82-6.27 151.78-5.19 152.74-4.1 154.15-3.64 155.55-3.17 156.94-3.17L156.94-3.17Q158.8-3.17 160.06-3.67 161.31-4.17 161.96-5.04 162.61-5.91 162.61-7.01ZM183.63-3.17L183.63-3.17Q185.24-3.17 186.6-3.85 187.97-4.52 188.85-5.69 189.73-6.86 189.85-8.35L189.85-8.35 194.17-8.35Q194.05-6.01 192.59-3.99 191.12-1.98 188.78-0.74 186.43 0.49 183.63 0.49L183.63 0.49Q179.65 0.49 177.03-1.33 174.42-3.15 173.14-6.15 171.86-9.16 171.86-12.7L171.86-12.7 171.86-13.72Q171.86-17.29 173.15-20.28 174.45-23.27 177.06-25.09 179.67-26.9 183.63-26.9L183.63-26.9Q186.73-26.9 189.06-25.65 191.39-24.39 192.72-22.23 194.05-20.07 194.17-17.33L194.17-17.33 189.85-17.33Q189.73-18.97 188.94-20.31 188.14-21.66 186.79-22.45 185.43-23.24 183.63-23.24L183.63-23.24Q180.87-23.24 179.29-21.83 177.72-20.41 177.07-18.23 176.42-16.04 176.42-13.72L176.42-13.72 176.42-12.7Q176.42-10.38 177.06-8.18 177.69-5.98 179.27-4.58 180.84-3.17 183.63-3.17ZM203.79-37.5L203.79 0 199.22 0 199.22-37.5 203.79-37.5ZM202.71-14.23L200.81-14.31Q200.86-17.92 202.2-20.76 203.54-23.61 205.95-25.26 208.35-26.9 211.55-26.9L211.55-26.9Q214.16-26.9 216.06-25.94 217.95-24.98 218.99-22.88 220.02-20.78 220.02-17.31L220.02-17.31 220.02 0 215.46 0 215.46-17.36Q215.46-19.43 214.86-20.7 214.26-21.97 213.09-22.55 211.92-23.12 210.21-23.12L210.21-23.12Q208.52-23.12 207.16-22.41 205.79-21.7 204.79-20.46 203.79-19.21 203.25-17.61 202.71-16.02 202.71-14.23L202.71-14.23Z" opacity="1" transform="matrix(1,0,0,1,0,0)" fill="#ffffff" class="wordmark-text-0" data-fill-palette-color="primary" id="text-0"></path></svg></g></svg></g></svg></g></svg></g></svg></g></svg></g></svg></g></svg></g><defs></defs></svg><rect width="375.07952880859375" height="158.0753631591797" fill="none" stroke="none" visibility="hidden"></rect></g></svg></g></svg>